<svg version="1.1" id="Layer_1" xmlns:x="ns_extend;" xmlns:i="ns_ai;" xmlns:graph="ns_graphs;" xmlns="http://www.w3.org/2000/svg" xmlns:xlink="http://www.w3.org/1999/xlink" x="0px" y="0px" viewBox="0 0 264 66" style="enable-background:new 0 0 264 66;" xml:space="preserve">
 <style type="text/css">
  .st0{fill:#E90000;}
 </style>
 <metadata>
  <sfw xmlns="ns_sfw;">
   <slices>
   </slices>
   <sliceSourceBounds bottomLeftOrigin="true" height="66" width="264" x="-57.5" y="-201.7">
   </sliceSourceBounds>
  </sfw>
 </metadata>
 <g>
  <path class="st0" d="M23.6,63.8c3.7-1.3,6.7-3.1,9.5-4.9l0.8-0.5c3-1.9,6-4,9-6.6c6.7-5.7,10.7-11.4,13-18.2
		c0.9-2.8,2.3-8.2,0.6-13.3c-1.2-3.7-3.5-6.8-6.8-9.1c-0.4-0.3-4.6-3.6-12.4-3.6c-7.2,0-15.1,2.7-23.4,8.1l-0.3,0.2l0,0
		c-0.3,0.1-0.5,0.3-0.7,0.5c-0.2,0.1-0.4,0.3-0.6,0.4c-1.7,1.1-3.3,2.4-4.9,3.7C3.8,23.8-0.2,29.4,0,34.1c0.1,2,1,3.7,2.5,4.9
		c1.4,1.1,3.2,1.6,5.3,1.6c4.3,0,9-2.3,12.2-4.2c0.2-0.1,0.4-0.3,0.6-0.4c0.6-0.4,1.1-0.7,1.7-1.1l0.6-0.4c4.6-3,9.3-6.1,14.6-7.9
		c1.4-0.5,2.6-0.7,3.7-0.7c0.5,0,1.1,0,1.6,0.2c1.6,0.4,2.8,1.3,3.5,2.7c1.2,2.5,0.9,6.3-0.7,9.9c-2.3,4.8-6.2,9.6-11.7,14.2
		c-2.8,2.3-5.4,4.1-7.6,5.3L26,58.3c-1.1,0.6-2.3,1.2-3.5,1.7l-0.2,0.1c-0.4,0.1-0.7,0.3-1,0.4c-5.3,1.4-2.1-3.2-2.1-3.2
		c1.2-1.4,2.4-2.5,3.6-3.6c0.7-0.7,1.5-1.3,2.2-2.1l0.2-0.2c0.9-0.9,2.2-2.2,2.1-4c-0.1-2.4-2.6-3.9-4.9-3.9h-0.2
		c-2.2,0-4.3,1.3-5.7,2.4c-1.4,1.1-2.8,2.7-3.8,4.2c-1.4,2.2-4.4,7.8-1.5,12.3c1.2,1.8,3.1,2.7,5.8,2.7
		C18.9,65.1,21.1,64.7,23.6,63.8z M127.3,0c-4.2,0-7.7,3.3-7.7,7.4c0,4.2,3.3,7.4,7.6,7.4c4.2,0,7.6-3.3,7.6-7.4
		c0.1-2-0.7-3.9-2.1-5.2C131.3,0.8,129.4,0,127.3,0z M121.3,65.1h11.9V18.6l-11.9,1.9L121.3,65.1L121.3,65.1z M95.3,17.8
		c-5.7,0-10.8,1.6-16.1,4.1l-1.3,0.7l3.2,7l1.8-0.8c3.7-1.6,7.7-2.7,11.3-2.6c4.3,0.2,6.1,2.1,6.1,6.2v2.4h-7.1
		c-11.4,0-18.4,5.9-18.6,15c0,8.7,7.4,16.2,17.7,16.2c8.3,0,15.4-2.6,20.1-7.3V33.8C112.3,21.7,103.5,17.8,95.3,17.8z M100.2,56.3
		c-1.2,0.8-3.6,1.5-6.2,1.5c-4.8,0-7-3.6-6.9-7.8c0.1-3.5,2.3-7.4,8.3-7.4h4.8L100.2,56.3L100.2,56.3z M221,57.7
		c-3.3,0-5.5-1.1-6.9-2.6c-2.1-2.3-3.1-6.9-2.8-11.9h25.7v-1.2c-0.2-16.5-6-24-18.5-24c-14,0-19.5,12.6-19.6,24.5
		c-0.1,7.5,2.8,15.1,8.1,19.4c3.2,2.6,7.7,4.1,12.8,4.1c2.8,0,5.8-0.4,8.5-1.2c5.2-1.6,9-4.3,9-4.3l-3.4-6.8
		C233.2,54.2,228,57.7,221,57.7L221,57.7z M218.4,26.8c5.3,0,6.1,5.6,6.1,9.1h-12.9C211.8,31.4,213.7,26.8,218.4,26.8L218.4,26.8z
		 M142.7,26.9l0,38.2h12.2V29.2c1.6-1.5,5-2.8,8.2-3c3-0.1,4.9,0.5,4.9,0.5l3.4-7.4c-1.3-0.6-4.4-1.4-8-1.4
		C158,17.9,150,19.4,142.7,26.9z M262.2,57.7c-5-0.4-6-2.5-6-6.1v-46l-12,2v43.2c0,10.2,5.7,14.6,15.2,14.6c2,0,4.6-0.5,4.6-0.5
		v-7.3C264,57.8,262.9,57.8,262.2,57.7z M186.7,5.8l-12.2,1.9v43.4c0,9.7,5.8,14.3,15.6,14.3c2.3,0,4.5-0.4,4.5-0.4v-7.2
		c-0.1,0-1,0-1.7,0c-5.1-0.2-6.1-2.9-6.1-6.1V27.2h7.9v-8.6h-7.9L186.7,5.8C186.7,5.8,186.7,5.8,186.7,5.8z">
  </path>
 </g>
</svg>